<svg xmlns="http://www.w3.org/2000/svg" width="48.467" height="46.115"><defs><clipPath id="a"><path data-name="Rectangle 27" transform="translate(16431 2552)" fill="#fff" stroke="#707070" d="M0 0h24.739v23.966H0z"/></clipPath></defs><g data-name="Group 82"><g data-name="Mask Group 1" transform="rotate(90 9515.734 -6915.266)" clip-path="url(#a)"><path data-name="Path 6" d="M16449.577 2560.105l-6.309-2.041a.464.464 0 00-.136-.269l-1.419-1.395a.487.487 0 00-.679 0l-.607.6-5.312-4.419a2.531 2.531 0 00-3.378.135 2.411 2.411 0 00-.138 3.312l4.509 5.206-.61.6a.464.464 0 000 .665l1.419 1.39a.481.481 0 00.274.133l2.082 6.186a.479.479 0 00.456.323 10.248 10.248 0 007.139-2.874.428.428 0 00.1-.1 9.848 9.848 0 002.939-7.005.472.472 0 00-.33-.447zm-17.25-4.686a1.491 1.491 0 01.085-2.037 1.565 1.565 0 012.082-.082l5.249 4.37-2.954 2.9zm4.185 6.745l.583-.572 3.69-3.618.583-.572.741.726-4.852 4.762zm1.5 1.311l4.692-4.6 6.23 2.016a8.838 8.838 0 01-.42 2.381l-3.361-1.63a.484.484 0 00-.643.213.466.466 0 00.217.631l3.447 1.672a9.046 9.046 0 01-1.604 2.442l-2.143-2.1a.487.487 0 00-.679 0 .465.465 0 000 .666l2.146 2.1a9.266 9.266 0 01-2.485 1.571l-1.7-3.38a.485.485 0 00-.643-.213.466.466 0 00-.218.63l1.662 3.3a9.326 9.326 0 01-2.428.412zm0 0"/><path data-name="Path 7" d="M16442.788 2564.031a.488.488 0 00.339-.138.464.464 0 000-.666.488.488 0 00-.679 0 .464.464 0 000 .666.488.488 0 00.34.138zm0 0"/><path data-name="Path 8" d="M16434.418 2554.079a.487.487 0 00-.679 0 .464.464 0 000 .665l1.89 1.853a.487.487 0 00.679 0 .464.464 0 000-.666zm0 0"/><path data-name="Path 9" d="M16437.478 2557.079a.487.487 0 00-.679 0 .464.464 0 000 .665.487.487 0 00.679 0 .464.464 0 000-.665zm0 0"/><path data-name="Path 10" d="M16453.271 2560.254a2.431 2.431 0 001.707-.692 1.96 1.96 0 000-2.81 1.742 1.742 0 00-2.429 0 1.423 1.423 0 000 2.038 1.292 1.292 0 001.8 0 .464.464 0 000-.666.487.487 0 00-.679 0 .317.317 0 01-.441 0 .493.493 0 010-.707.768.768 0 011.071 0 1.031 1.031 0 010 1.479 1.476 1.476 0 01-2.056 0 .487.487 0 00-.679 0 .464.464 0 000 .666 2.431 2.431 0 001.706.692zm0 0"/><path data-name="Path 11" d="M16445.486 2570.849a.471.471 0 100 .941 1.943 1.943 0 011.96 1.922 1.459 1.459 0 01-1.472 1.443 1.072 1.072 0 01-1.082-1.06.763.763 0 01.769-.754.515.515 0 01.519.509.48.48 0 00.96 0 1.467 1.467 0 00-1.479-1.45 1.715 1.715 0 00-1.729 1.7 2.024 2.024 0 002.042 2 2.411 2.411 0 002.432-2.384 2.9 2.9 0 00-2.92-2.867zm0 0"/><path data-name="Path 12" d="M16453.016 2567.844a1.925 1.925 0 01-1.941-1.9.48.48 0 00-.96 0 2.877 2.877 0 002.9 2.844.471.471 0 100-.941zm0 0"/><path data-name="Path 13" d="M16455.091 2567.844a.488.488 0 00-.339.137.464.464 0 000 .666.486.486 0 00.679 0 .464.464 0 000-.666.489.489 0 00-.34-.137zm0 0"/><path data-name="Path 14" d="M16449.427 2569.601a.488.488 0 00-.339.138.464.464 0 000 .665.487.487 0 00.679 0 .464.464 0 000-.665.489.489 0 00-.34-.138zm0 0"/><path data-name="Path 15" d="M16452.307 2573.003a.488.488 0 00-.339.138.464.464 0 000 .665.487.487 0 00.679 0 .464.464 0 000-.665.489.489 0 00-.34-.138zm0 0"/><path data-name="Path 16" d="M16453.493 2564.236a.488.488 0 00-.339.138.464.464 0 000 .665.486.486 0 00.679 0 .464.464 0 000-.665.489.489 0 00-.34-.138zm0 0"/><path data-name="Path 17" d="M16440.841 2571.468a.486.486 0 00-.339.138.464.464 0 000 .665.486.486 0 00.679 0 .463.463 0 000-.665.485.485 0 00-.34-.138zm0 0"/></g><path data-name="Path 20" d="M34.428 42.998v-2.079h-1.039v-2.078H32.35v-2.078h-1.039v2.078h-4.157V28.82l2.078 1.172v1.791l2.078 2.078v1.863h1.04v-2.293l-2.078-2.083v-1.963l-4.156-2.343v11.8h-1.04v2.078H21.89v-2.079h-1.039V25.333h1.039v-2.078h3.117v-4.964L21.179 15.9l-3.282-.6-.6-2.5-1.912-2.152h-1.929L0 18.277v4.978h2.078v2.078h1.039v3.115h1.039v-3.115h4.157v13.508H4.156v-1.436l1.1-2.2-1.1-2.2V29.49H3.117v3.758l.978 1.955-.978 1.955v1.681H2.078v2.078H1.039v2.081H0v3.117h35.467v-3.117zm-8.312-3.117h6.234v1.039h-6.235zm-11.5 1.039v-1.04h6.234v1.039zm5.2-2.078h-4.161V25.333h4.156zm1.039-14.547h-6.239v-1.04h6.234zM13.73 11.687h1.188l1.431 1.612.695 2.906 3.753.682 1.878 1.173H2.489l4.7-2.667h2.963l.831 1.628h1.357v-1.039h-.721l-.831-1.628H9.026zM1.039 19.099h22.929v3.117H1.039zm8.312 4.156v1.039H3.117v-1.039zm0 2.078h1.039v-2.078h3.187v2.078h1.039v13.508h-1.039v2.078h-3.186v-2.078H9.352zM3.117 39.88h6.235v1.039H3.117zm31.311 5.2H1.039v-1.043H11.5v-1.039H2.078v-1.039h31.311v1.039H12.538v1.039h21.89z"/><path data-name="Path 21" d="M17.733 26.374h1.039v1.039h-1.039z"/><path data-name="Path 22" d="M29.231 34.166h1.039v1.039h-1.039z"/><path data-name="Path 23" d="M13.593 12.726h1.039v1.039h-1.039z"/><path data-name="Path 24" d="M6.234 26.374h1.039v1.039H6.234z"/><path data-name="Path 25" d="M13.379 15.982h1.039v1.039h-1.039z"/></g></svg>