<svg xmlns="http://www.w3.org/2000/svg" width="44.535" height="44.583"><g data-name="035---Creative-Thinking"><path d="M38.457 32.694a9.986 9.986 0 00-.018-3.79l3.4-8.213a.127.127 0 000-.016 13.954 13.954 0 012.389-4.148 1.108 1.108 0 00.274-1.014l-1.4-6.026a.728.728 0 00-.074-.18c-.006-.011-.008-.025-.014-.035s-.032-.036-.047-.055a.749.749 0 00-.1-.123.691.691 0 00-.081-.049.755.755 0 00-.115-.07.734.734 0 00-.174-.042c-.017 0-.032-.011-.049-.013a.743.743 0 00-.409.091c-.011.006-.025.008-.036.015h-.007L36.752 12.3a1.109 1.109 0 00-.525.914 13.947 13.947 0 01-1.249 4.631v.008l-1.7 4.111a9.967 9.967 0 00-2.654-.959 40.149 40.149 0 00.384-7.305 8.11 8.11 0 001.844-5.953C32.388 3.418 28.474.29 28.307.159a.743.743 0 00-1.178.775c.383 1.437.051 2.954-2.775 6.072a4.348 4.348 0 00-1.019 4.738 5.768 5.768 0 001.058 1.709 51.65 51.65 0 00-.418 3.294 37.214 37.214 0 00-.129 5.27 10.11 10.11 0 00-1.85 1.289L18.388 7.9c0-.016-.015-.027-.019-.041a.7.7 0 00-.052-.143L14.64.913a1.716 1.716 0 00-3.223.755l-.279 7.724a.771.771 0 00.019.166v.033l3.677 15.691a8.365 8.365 0 00-1.718.256L9.07 15.771a1.5 1.5 0 00-1.939-.794L.949 17.536a1.491 1.491 0 00-.8 1.942l5.48 13.232a5.941 5.941 0 00.306 11.873H38.63a5.945 5.945 0 10-.172-11.889zM37.7 13.461l3.115-1.944-1.1 2.663a.743.743 0 101.373.569l1.1-2.663.826 3.576a14.7 14.7 0 00-2.155 3.557 3.056 3.056 0 01-4.154-1.719 14.678 14.678 0 00.995-4.039zm-1.712 5.834a4.526 4.526 0 001.852 1.349 4.715 4.715 0 001.818.383 3.938 3.938 0 00.45-.027l-2.371 5.721a10.085 10.085 0 00-3.191-3.945zm-10.18-5.307l3.733.228c.023.694.015 1.412-.008 2.141a15.619 15.619 0 01-3.723-.18l-.278-.036c.074-.7.165-1.409.274-2.153zM25.457 8c1.973-2.176 3-3.85 3.233-5.424a9.938 9.938 0 012.682 5.326 6.658 6.658 0 01-1.5 4.839l-4.355-.267A3.1 3.1 0 0125.455 8zm-.056 9.617l.215.028a21.171 21.171 0 002.893.246c.308 0 .632-.025.956-.05a46.615 46.615 0 01-.319 2.987c-.184-.01-.363-.027-.548-.027a9.952 9.952 0 00-3.293.567 35.863 35.863 0 01.094-3.751zm-5.747 8.689l-2.126-9.056a.743.743 0 00-1.447.339l1.907 8.155a8.416 8.416 0 00-1.62-.4l-3.258-13.92a3.521 3.521 0 001.455.317c.047 0 .1-.007.144-.009l.525 2.243a.743.743 0 101.447-.339l-.526-2.245a3.519 3.519 0 001.3-.988l3.313 14.176a9.968 9.968 0 00-1.115 1.732zm-4.54-16.124a2.467 2.467 0 01-2.481-.993l.094-2.617a4.374 4.374 0 00.784.074 3.311 3.311 0 00.755-.084 3.785 3.785 0 001.378-.685l1.251 2.309a2.465 2.465 0 01-1.781 2zm-2.036-8.676a.232.232 0 01.256.114l1.593 2.946a2.535 2.535 0 01-1 .557 2.526 2.526 0 01-1.149-.053l.121-3.348a.23.23 0 01.179-.216zM7.7 16.347l.568 1.372-2.749 1.138a.743.743 0 00.286 1.428.753.753 0 00.285-.056l2.749-1.139.568 1.373-1.375.57a.743.743 0 00.285 1.43.755.755 0 00.284-.056l1.375-.57.568 1.373-2.751 1.14a.743.743 0 00.285 1.43.752.752 0 00.284-.056l2.749-1.138.6 1.451A8.626 8.626 0 006.9 31.893L1.516 18.906zM38.63 43.1H5.936a4.458 4.458 0 010-8.917 4.377 4.377 0 011.271.184.743.743 0 00.958-.7 7.059 7.059 0 0111.294-5.505.743.743 0 001.139-.334 8.547 8.547 0 0116.17 5.516.743.743 0 00.869.945 4.641 4.641 0 01.992-.108 4.458 4.458 0 110 8.917z"/><path data-name="Shape" d="M28.736 11.666a.743.743 0 00.594-.294 5.573 5.573 0 00.988-4.375.743.743 0 10-1.436.383 4.128 4.128 0 01-.737 3.1.743.743 0 00.594 1.189zM27.759 34.184a3.653 3.653 0 00-1.594.372 4.458 4.458 0 00-7.7 4.377.743.743 0 00.684.452.735.735 0 00.291-.059.743.743 0 00.392-.975 3.027 3.027 0 01-.245-1.193 2.972 2.972 0 012.971-2.974 2.942 2.942 0 012.686 1.709.81.81 0 00.052.07.755.755 0 00.039.074c.013.016.033.024.048.039a.709.709 0 00.115.1.72.72 0 00.119.074.736.736 0 00.134.042.683.683 0 00.14.022.915.915 0 00.284-.048.56.56 0 00.059-.014.669.669 0 00.069-.051.772.772 0 00.078-.04 2.191 2.191 0 011.379-.487 2.229 2.229 0 012.021 1.3.743.743 0 001.352-.617 3.715 3.715 0 00-3.374-2.173zM13.131 29.018a4.032 4.032 0 00-2.737 3.677.743.743 0 101.486 0 2.555 2.555 0 011.725-2.269.745.745 0 00-.474-1.412zM23.588 28.214a.725.725 0 00.181.022.743.743 0 00.72-.562 3.169 3.169 0 013-2.41.743.743 0 000-1.486 4.628 4.628 0 00-4.436 3.535.743.743 0 00.535.901z"/></g></svg>