
<svg width="36" height="36" viewBox="0 0 36 36" xmlns="http://www.w3.org/2000/svg"><path d="M34.332 26.077l-3.817-3.816c-.753-.753-1.755-1.167-2.82-1.167s-2.065.414-2.82 1.168l-1.022 1.023c-4-3.307-7.84-7.147-11.14-11.14l1.024-1.02c1.554-1.555 1.554-4.084 0-5.64L9.92 1.67C9.167.914 8.165.5 7.1.5S5.034.914 4.28 1.668L2.186 3.76c-1.934 1.933-2.24 4.996-.73 7.28 6.12 9.253 14.247 17.378 23.5 23.5.952.63 2.057.96 3.196.96 1.545 0 2.996-.6 4.085-1.69l2.095-2.095c.753-.75 1.168-1.753 1.168-2.82 0-1.063-.415-2.066-1.168-2.818" /></svg>