<svg xmlns="http://www.w3.org/2000/svg" width="49.221" height="49.523"><g data-name="092---Traveling" transform="translate(-.375 -.001)"><path d="M35.224 18.228a2.258 2.258 0 00.586-1.448c.03-1.132-.651-1.6-1.568-2.523a2.216 2.216 0 00-3.195.125l-.318-.953c.743-.753 2.559-2.6 4.017-4.215 3.6-3.976 3.406-6.9 3.158-7.968A1.511 1.511 0 0036.762.129c-1.171-.262-4.3-.476-7.969 3.194L25.326 6.79l-1.244-.343a2.182 2.182 0 00-.3-2.65l-.951-.95a2.212 2.212 0 00-3.122.053l-1.85 1.85-5.118-1.4a5.54 5.54 0 00-5.366 1.428l-.263.262a1.5 1.5 0 00.383 2.4l5.54 2.77c-.548 1.183-.854 2.394.067 3.314a2.064 2.064 0 001.811.562 6.875 6.875 0 003-1.436l1.049.524a63.706 63.706 0 00-6.1 7.862l-2.889-.722a1.511 1.511 0 00-1.422.395l-.682.681a1.5 1.5 0 000 2.119l6.657 6.657a1.5 1.5 0 002.118 0l.68-.681a1.507 1.507 0 00.4-1.423l-.722-2.889a63.842 63.842 0 007.862-6.1l.524 1.049a7.073 7.073 0 00-.747 1.094 15.675 15.675 0 1010.585-2.988zm11.745 20.72a12.815 12.815 0 00-3.614 1.816c-1.017.683-2.666 1.4-3.56.6-1.283-1.156 1.246-4.028 1.246-7.025-.009-2.322-1.64-4.014-4.479-4.641a4.347 4.347 0 01-2.039-1.027 5.588 5.588 0 00.222-3.044c1.37-1.427 3.615-1.493 5.949-4.045a13.951 13.951 0 016.275 17.364zm-13.32-19.13a13.779 13.779 0 015.467 1.01c-1.921 1.856-3.43 1.919-4.9 3.054l-1.156-3.473zm-1.925-3.779c.555-.556.667-.743.991-.75.281-.018.316.091 1.312 1.088a.563.563 0 01-.052.785l-1.5 1.5-.851-2.553a.853.853 0 00.1-.069zM20.876 4.068a.568.568 0 01.788-.053l.95.951a.568.568 0 01-.052.787l-.22.22-2.649-.723zm-6.124 8.37a.488.488 0 01-.479-.083.5.5 0 01-.083-.478 5.243 5.243 0 01.33-.93l1.734.866a5.432 5.432 0 01-1.5.624zm9.764 4.674c-2.8 2.8-4.875 4.147-8.557 6.777a1.486 1.486 0 00-.578 1.582l.726 2.906-.513.513-6.439-6.44.514-.512 2.906.727a1.492 1.492 0 001.582-.584 58.675 58.675 0 016.778-8.556.825.825 0 00-.216-1.325L8.426 6.058a3.9 3.9 0 013.88-1.112l12.822 3.5a1.244 1.244 0 001.2-.319l3.631-3.634c3-3 5.384-2.959 6.356-2.768.115.65.248 3.016-2.8 6.384-1.573 1.742-3.57 3.763-4.144 4.34a1.228 1.228 0 00-.295 1.263l4.011 12.027a3.9 3.9 0 01-1.111 3.88l-6.138-12.294a.825.825 0 00-1.322-.214zm1.709 4.68l.866 1.734a4.416 4.416 0 01-1.025.343.389.389 0 01-.48-.48 5.164 5.164 0 01.64-1.593zm-5.9 8.588a5.169 5.169 0 002.5 2.264c1.816.752 4.189.478 4.062 1.985a8.922 8.922 0 01-.707 2.458c-.991 2.533-.93 3.226-.632 4.953a5.779 5.779 0 01-.042 3.028 13.92 13.92 0 01-5.184-14.688zm11.53 17.345c1.816-1.214 3.765-1.833 7.182-1.583a12.985 12.985 0 011.308.172 13.977 13.977 0 01-8.49 1.411zm10.454-2.637a16.1 16.1 0 00-7.978-.281 11.247 11.247 0 00-4.562 2.437 13.967 13.967 0 01-2.8-1.221 7.683 7.683 0 00.211-4.26c-.248-1.437-.324-1.862.542-4.073a10.309 10.309 0 00.815-2.921 2.605 2.605 0 00-1.643-2.7c-1.225-.539-2.425-.531-3.435-.949a4.287 4.287 0 01-2.3-3.113 13.822 13.822 0 012.3-3.519c.165-.188.354-.354.531-.532a2.018 2.018 0 00.527.977c.929.93 2.146.61 3.314.068l2.77 5.542a1.5 1.5 0 002.4.39 6.987 6.987 0 00.7-.77 6.384 6.384 0 002.505 1.148c1.448.319 3.176 1.107 3.183 3.032 0 2.131-1.557 3.992-1.6 6.058a2.939 2.939 0 003.573 2.933c1.981-.256 3.093-1.459 4.54-2.2a13.969 13.969 0 01-3.6 3.952z"/><path data-name="Shape" d="M11.136 46.301c-4.962-2.234-7.934-5.6-8.828-10C1 29.859 4.568 22.419 8.439 18.237a.825.825 0 00-1.212-1.121C2.941 21.747-.743 29.58.69 36.637c1.01 4.945 4.293 8.7 9.768 11.17a.826.826 0 10.679-1.506z"/><path data-name="Shape" d="M9.73 29.476a.825.825 0 00-1.167-1.167c-3.747 3.744-3.518 11.775 4.252 16.956a.826.826 0 00.916-1.374c-6.82-4.547-7.05-11.365-4-14.414z"/><path data-name="Shape" d="M13.886 36.839a3.986 3.986 0 01.8-3.235.825.825 0 000-1.167c-1.582-1.582-4.969 4.8.484 10.248a.825.825 0 001.167-1.167 8.215 8.215 0 01-2.448-4.678z"/><circle cx=".825" cy=".825" r=".825" transform="translate(9.146 14.859)"/></g></svg>